<svg width="385" height="385" viewBox="0 0 385 385" fill="none" xmlns="http://www.w3.org/2000/svg">
<circle cx="192.5" cy="192.5" r="192.5" fill="white"/>
<circle cx="192.5" cy="192.5" r="168.5" fill="white" stroke="#98002E" stroke-width="8"/>
<g clip-path="url(#clip0_7740_1755)">
<path d="M206.688 215.69L217.781 222.095" stroke="#98002E" stroke-width="4" stroke-miterlimit="10" stroke-linecap="round" stroke-linejoin="round"/>
<path d="M212.695 205.274L226.034 212.975" stroke="#98002E" stroke-width="4" stroke-miterlimit="10" stroke-linecap="round" stroke-linejoin="round"/>
<path d="M203.726 182.541C203.464 183.598 202.984 184.569 202.336 185.404" stroke="#98002E" stroke-width="4" stroke-miterlimit="10" stroke-linecap="round" stroke-linejoin="round"/>
<path d="M200.633 226.086L206.21 229.306" stroke="#98002E" stroke-width="4" stroke-miterlimit="10" stroke-linecap="round" stroke-linejoin="round"/>
<path d="M162.367 167.952L165.165 169.567C165.328 169.661 165.384 169.87 165.29 170.033L146.289 202.943C146.195 203.106 145.987 203.162 145.824 203.068L132.983 195.654C132.82 195.56 132.764 195.352 132.858 195.189L151.859 162.278C151.953 162.115 152.161 162.06 152.324 162.154L155.001 163.699" stroke="#98002E" stroke-width="4" stroke-miterlimit="10" stroke-linecap="round" stroke-linejoin="round"/>
<circle cx="154.891" cy="170.884" r="1.21094" fill="#98002E"/>
<path d="M253.009 195.654C253.172 195.56 253.227 195.352 253.133 195.189L234.133 162.278C234.039 162.115 233.83 162.06 233.667 162.154L220.827 169.567C220.664 169.661 220.608 169.869 220.702 170.032L239.703 202.943C239.797 203.106 240.005 203.162 240.168 203.068L253.009 195.654Z" stroke="#98002E" stroke-width="4" stroke-miterlimit="10" stroke-linecap="round" stroke-linejoin="round"/>
<circle cx="229.891" cy="170.884" r="1.21094" fill="#98002E"/>
<path d="M161.177 197.903C160.806 198.029 160.442 198.192 160.09 198.396L153.317 202.306C151.228 203.512 150.513 206.182 151.718 208.271L153.365 211.124C154.571 213.212 157.242 213.928 159.33 212.722L166.103 208.812C168.924 207.183 169.927 203.613 168.397 200.763" stroke="#98002E" stroke-width="4" stroke-miterlimit="10" stroke-linecap="round" stroke-linejoin="round"/>
<path d="M166.276 222.6L170.878 219.943C173.754 218.283 174.74 214.605 173.079 211.728C171.419 208.852 167.741 207.867 164.864 209.527L160.262 212.184C158.174 213.39 157.458 216.061 158.664 218.15L160.311 221.002C161.517 223.09 164.187 223.806 166.276 222.6Z" stroke="#98002E" stroke-width="4" stroke-miterlimit="10" stroke-linecap="round" stroke-linejoin="round"/>
<path d="M175.604 231.101L179.897 228.623C182.773 226.962 183.758 223.284 182.098 220.408C180.437 217.532 176.759 216.546 173.883 218.207L169.59 220.685C167.502 221.891 166.786 224.562 167.992 226.651L169.639 229.503C170.845 231.592 173.516 232.307 175.604 231.101Z" stroke="#98002E" stroke-width="4" stroke-miterlimit="10" stroke-linecap="round" stroke-linejoin="round"/>
<path d="M185.917 239.039L188.969 237.277C191.845 235.616 192.831 231.938 191.17 229.062C189.509 226.186 185.831 225.2 182.955 226.861L179.903 228.623C177.814 229.829 177.099 232.5 178.304 234.588L179.951 237.441C181.157 239.529 183.828 240.245 185.917 239.039Z" stroke="#98002E" stroke-width="4" stroke-miterlimit="10" stroke-linecap="round" stroke-linejoin="round"/>
<path d="M192.867 159.567C191.02 159.567 189.523 158.07 189.523 156.224V149.537C189.523 147.691 191.02 146.194 192.867 146.194C194.713 146.194 196.21 147.691 196.21 149.537V156.224C196.21 158.07 194.713 159.567 192.867 159.567Z" stroke="#98002E" stroke-width="4" stroke-miterlimit="10" stroke-linecap="round" stroke-linejoin="round"/>
<path d="M207.914 162.462C206.315 161.539 205.767 159.494 206.691 157.895L210.034 152.104C210.957 150.505 213.002 149.957 214.601 150.881C216.2 151.804 216.748 153.849 215.825 155.448L212.481 161.238C211.558 162.837 209.514 163.385 207.914 162.462Z" stroke="#98002E" stroke-width="4" stroke-miterlimit="10" stroke-linecap="round" stroke-linejoin="round"/>
<path d="M177.828 162.462C179.427 161.539 179.975 159.494 179.051 157.895L175.708 152.104C174.785 150.505 172.74 149.957 171.141 150.881C169.542 151.804 168.994 153.849 169.917 155.448L173.261 161.238C174.184 162.837 176.229 163.385 177.828 162.462Z" stroke="#98002E" stroke-width="4" stroke-miterlimit="10" stroke-linecap="round" stroke-linejoin="round"/>
<path d="M191.383 234.672L192.206 235.105L199.333 239.22C201.45 240.443 204.157 239.69 205.339 237.55L206.932 234.666C208.082 232.584 207.354 229.963 205.293 228.773L201.245 226.436L211.091 232.121C213.207 233.343 215.915 232.59 217.097 230.45L218.689 227.567C219.84 225.484 219.111 222.864 217.051 221.674L211.043 218.205L219.953 223.349C222.042 224.555 224.712 223.84 225.918 221.751L227.565 218.899C228.771 216.81 228.056 214.14 225.968 212.934L220.519 209.787L227.35 213.732C229.483 214.963 232.212 214.188 233.379 212.019L234.94 209.118C236.059 207.039 235.323 204.447 233.278 203.267L233.1 203.165" stroke="#98002E" stroke-width="4" stroke-miterlimit="10" stroke-linecap="round" stroke-linejoin="round"/>
<path d="M147.766 200.385L152.374 203.04" stroke="#98002E" stroke-width="4" stroke-miterlimit="10" stroke-linecap="round" stroke-linejoin="round"/>
<path d="M176.477 177.751C174.066 177.691 171.694 177.025 169.583 175.807L163.859 172.508" stroke="#98002E" stroke-width="4" stroke-miterlimit="10" stroke-linecap="round" stroke-linejoin="round"/>
<path d="M198.684 171.111L198.416 170.956C195.269 169.14 191.392 169.14 188.245 170.956L172.349 180.134C171.47 180.641 171.169 181.765 171.676 182.644L172.269 183.67C174.755 187.977 180.263 189.452 184.57 186.966C185.601 186.371 186.522 185.839 187.166 185.467C188.276 184.826 189.696 185.009 190.571 185.946C191.982 187.456 193.991 188.4 196.221 188.4C198.706 188.4 200.918 187.227 202.332 185.404L209.173 189.354L220.439 195.858L233.094 203.165L238.142 200.244" stroke="#98002E" stroke-width="4" stroke-miterlimit="10" stroke-linecap="round" stroke-linejoin="round"/>
<path d="M222.164 172.559L216.683 175.716C213.583 177.506 209.764 177.505 206.665 175.716L206.547 175.648" stroke="#98002E" stroke-width="4" stroke-miterlimit="10" stroke-linecap="round" stroke-linejoin="round"/>
</g>
<defs>
<clipPath id="clip0_7740_1755">
<rect width="124" height="124" fill="white" transform="translate(131 131)"/>
</clipPath>
</defs>
</svg>
