<svg width="385" height="385" viewBox="0 0 385 385" fill="none" xmlns="http://www.w3.org/2000/svg">
<circle cx="192.5" cy="192.5" r="192.5" fill="white"/>
<circle cx="192.5" cy="192.5" r="168.5" fill="white" stroke="#697782" stroke-width="8"/>
<path d="M163.937 255C163.423 255 162.931 254.796 162.567 254.432L139.317 231.182C139.046 230.911 138.862 230.566 138.787 230.19C138.712 229.815 138.751 229.425 138.897 229.071C139.044 228.717 139.292 228.415 139.611 228.202C139.929 227.989 140.304 227.875 140.687 227.875H163.937C164.451 227.875 164.944 228.079 165.307 228.442C165.67 228.806 165.875 229.299 165.875 229.812V253.062C165.875 253.576 165.67 254.069 165.307 254.433C164.944 254.796 164.451 255 163.937 255ZM145.364 231.75L162 248.385V231.75H145.364Z" fill="#697782"/>
<path d="M235.625 255H163.938C163.424 255 162.931 254.796 162.568 254.432L139.318 231.182C138.954 230.819 138.75 230.326 138.75 229.812V132.938C138.75 132.424 138.954 131.931 139.317 131.567C139.681 131.204 140.174 131 140.688 131H237.562C238.076 131 238.569 131.204 238.933 131.567C239.296 131.931 239.5 132.424 239.5 132.938V220.125H235.625V134.875H142.625V229.01L164.74 251.125H235.625V255Z" fill="#697782"/>
<path d="M243.375 255C242.861 255 242.368 254.796 242.005 254.432L220.692 233.12C220.329 232.757 220.125 232.264 220.125 231.75C220.125 231.236 220.329 230.744 220.692 230.38L230.38 220.693C230.743 220.33 231.236 220.125 231.75 220.125C232.263 220.125 232.756 220.33 233.119 220.693L254.432 242.005C254.795 242.369 254.999 242.861 254.999 243.375C254.999 243.889 254.795 244.382 254.432 244.745L244.744 254.432C244.381 254.796 243.888 255 243.375 255ZM224.802 231.75L243.375 250.323L250.322 243.375L231.75 224.802L224.802 231.75Z" fill="#697782"/>
<path d="M212.922 219.558L215.661 216.818L227.284 228.441L224.545 231.18L212.922 219.558Z" fill="#697782"/>
<path d="M216.797 215.683L219.536 212.943L231.159 224.566L228.42 227.305L216.797 215.683Z" fill="#697782"/>
<path d="M226.484 236.192L236.17 226.506L238.91 229.246L229.224 238.932L226.484 236.192Z" fill="#697782"/>
<path d="M189.125 229.813C181.078 229.813 173.211 227.426 166.52 222.955C159.829 218.485 154.614 212.13 151.535 204.695C148.455 197.261 147.649 189.08 149.219 181.187C150.789 173.295 154.664 166.045 160.355 160.355C166.045 154.664 173.295 150.789 181.187 149.219C189.08 147.649 197.261 148.455 204.695 151.535C212.13 154.614 218.485 159.829 222.955 166.52C227.426 173.211 229.813 181.078 229.813 189.125C229.8 199.912 225.51 210.254 217.882 217.882C210.254 225.51 199.912 229.8 189.125 229.813ZM189.125 152.313C181.844 152.313 174.727 154.472 168.673 158.517C162.619 162.562 157.901 168.311 155.115 175.037C152.328 181.764 151.599 189.166 153.02 196.307C154.44 203.448 157.946 210.007 163.095 215.155C168.243 220.304 174.802 223.81 181.943 225.23C189.084 226.651 196.486 225.922 203.213 223.135C209.939 220.349 215.688 215.631 219.733 209.577C223.779 203.523 225.938 196.406 225.938 189.125C225.927 179.365 222.045 170.008 215.143 163.107C208.242 156.205 198.885 152.323 189.125 152.313Z" fill="#697782"/>
<path d="M189.125 220.125C182.994 220.125 177 218.307 171.902 214.901C166.804 211.494 162.831 206.653 160.485 200.988C158.138 195.324 157.525 189.091 158.721 183.077C159.917 177.064 162.869 171.54 167.205 167.205C171.54 162.869 177.064 159.917 183.077 158.721C189.091 157.525 195.324 158.138 200.988 160.485C206.653 162.831 211.494 166.804 214.901 171.902C218.307 177 220.125 182.994 220.125 189.125C220.115 197.344 216.846 205.223 211.035 211.035C205.223 216.846 197.344 220.115 189.125 220.125ZM189.125 162C183.76 162 178.516 163.591 174.055 166.571C169.594 169.552 166.118 173.788 164.065 178.745C162.012 183.701 161.475 189.155 162.521 194.417C163.568 199.679 166.151 204.512 169.945 208.305C173.738 212.099 178.571 214.682 183.833 215.729C189.095 216.775 194.549 216.238 199.505 214.185C204.462 212.132 208.698 208.656 211.679 204.195C214.659 199.734 216.25 194.49 216.25 189.125C216.242 181.933 213.382 175.038 208.297 169.953C203.212 164.868 196.317 162.008 189.125 162Z" fill="#697782"/>
<path d="M163.938 154.25H148.438C147.924 154.25 147.431 154.046 147.067 153.683C146.704 153.319 146.5 152.826 146.5 152.312V140.688C146.5 140.174 146.704 139.681 147.067 139.317C147.431 138.954 147.924 138.75 148.438 138.75H163.938C164.451 138.75 164.944 138.954 165.308 139.317C165.671 139.681 165.875 140.174 165.875 140.688V152.312C165.875 152.826 165.671 153.319 165.308 153.683C164.944 154.046 164.451 154.25 163.938 154.25ZM150.375 150.375H162V142.625H150.375V150.375Z" fill="#697782"/>
<path d="M150.375 173.625H148.438C147.924 173.625 147.431 173.421 147.067 173.058C146.704 172.694 146.5 172.201 146.5 171.688V160.062C146.5 159.549 146.704 159.056 147.067 158.692C147.431 158.329 147.924 158.125 148.438 158.125H156.188V162H150.375V173.625Z" fill="#697782"/>
<path d="M169.75 138.75H173.625V142.625H169.75V138.75Z" fill="#697782"/>
<path d="M177.5 138.75H229.812V142.625H177.5V138.75Z" fill="#697782"/>
<path d="M169.75 243.375H173.625V247.25H169.75V243.375Z" fill="#697782"/>
<path d="M177.5 243.375H212.375V247.25H177.5V243.375Z" fill="#697782"/>
<path d="M169.75 235.625H204.625V239.5H169.75V235.625Z" fill="#697782"/>
<path d="M183.312 204.625C182.798 204.625 182.306 204.421 181.942 204.057L172.255 194.37C171.892 194.007 171.688 193.514 171.688 193C171.688 192.486 171.892 191.994 172.255 191.63L178.067 185.818C178.431 185.455 178.923 185.25 179.437 185.25C179.951 185.25 180.444 185.455 180.807 185.818L183.312 188.323L197.442 174.193C197.806 173.83 198.298 173.625 198.812 173.625C199.326 173.625 199.819 173.83 200.182 174.193L205.994 180.005C206.358 180.369 206.562 180.861 206.562 181.375C206.562 181.889 206.358 182.382 205.994 182.745L184.682 204.057C184.319 204.421 183.826 204.625 183.312 204.625ZM176.364 193L183.312 199.948L201.885 181.375L198.812 178.302L184.682 192.432C184.319 192.796 183.826 193 183.312 193C182.798 193 182.306 192.796 181.942 192.432L179.437 189.927L176.364 193Z" fill="#697782"/>
</svg>
