<svg width="70" height="70" viewBox="0 0 70 70" fill="none" xmlns="http://www.w3.org/2000/svg">
<g clip-path="url(#clip0_7737_1185)">
<path d="M41.0038 41.0341C46.1316 39.4475 50.4607 35.9642 53.108 31.2949C53.1561 31.2299 53.1958 31.159 53.2261 31.084C54.9353 27.99 55.8299 24.5123 55.8258 20.9776C55.8258 9.41063 46.4165 0 34.852 0C23.285 0 13.8745 9.41063 13.8745 20.9779C13.8705 24.5115 14.7648 27.9882 16.4734 31.0814C16.5041 31.1584 16.5448 31.2311 16.5944 31.2975C19.2399 35.961 23.5632 39.441 28.6841 41.0293C28.7279 41.0459 28.7729 41.0593 28.8186 41.0694C32.7597 42.252 36.9615 42.2502 40.9016 41.0642C40.9362 41.056 40.9703 41.046 41.0038 41.0341ZM29.0199 27.0951C28.4064 26.3056 27.584 25.7038 26.6459 25.3579C27.1594 24.7884 27.524 24.1006 27.7071 23.3559C27.8902 22.6112 27.8862 21.8328 27.6953 21.09C27.5044 20.3473 27.1326 19.6634 26.6132 19.0992C26.0937 18.5351 25.4427 18.1083 24.7182 17.857C25.3511 17.0337 26.4417 16.4979 27.6291 16.4979H30.4154C31.6028 16.4979 32.6933 17.0337 33.3261 17.857C32.6016 18.1082 31.9506 18.5349 31.431 19.099C30.9115 19.663 30.5396 20.3469 30.3487 21.0896C30.1577 21.8322 30.1535 22.6107 30.3365 23.3554C30.5194 24.1001 30.8839 24.7879 31.3973 25.3575C30.4581 25.7032 29.6345 26.3052 29.0199 27.0951ZM20.4549 22.2488C20.4549 21.7077 20.6154 21.1787 20.916 20.7288C21.2167 20.2789 21.644 19.9282 22.144 19.7211C22.6439 19.5141 23.194 19.4599 23.7247 19.5655C24.2555 19.6711 24.743 19.9317 25.1256 20.3143C25.5082 20.697 25.7688 21.1845 25.8743 21.7152C25.9799 22.2459 25.9257 22.7961 25.7186 23.296C25.5115 23.7959 25.1609 24.2232 24.7109 24.5238C24.261 24.8245 23.732 24.9849 23.1909 24.9849C22.4655 24.9842 21.77 24.6957 21.257 24.1827C20.7441 23.6697 20.4556 22.9742 20.4549 22.2488ZM29.0196 14.5832C28.4785 14.5832 27.9495 14.4228 27.4996 14.1221C27.0496 13.8215 26.6989 13.3942 26.4919 12.8942C26.2848 12.3943 26.2306 11.8441 26.3362 11.3134C26.4418 10.7827 26.7024 10.2952 27.085 9.91252C27.4677 9.52989 27.9552 9.26932 28.4859 9.16377C29.0167 9.05821 29.5668 9.11241 30.0667 9.31952C30.5667 9.52662 30.994 9.87732 31.2946 10.3273C31.5952 10.7772 31.7557 11.3062 31.7556 11.8474C31.7548 12.5727 31.4663 13.2682 30.9534 13.7811C30.4404 14.294 29.745 14.5824 29.0196 14.5832ZM32.1158 22.2488C32.1158 21.7076 32.2762 21.1786 32.5769 20.7286C32.8775 20.2787 33.3049 19.928 33.8049 19.7209C34.3048 19.5138 34.855 19.4596 35.3858 19.5652C35.9165 19.6708 36.4041 19.9314 36.7867 20.3141C37.1694 20.6968 37.4299 21.1843 37.5355 21.7151C37.6411 22.2458 37.5869 22.796 37.3797 23.296C37.1726 23.7959 36.8219 24.2232 36.3719 24.5239C35.922 24.8245 35.3929 24.985 34.8518 24.9849C34.1263 24.9842 33.4309 24.6957 32.9179 24.1827C32.405 23.6697 32.1165 22.9742 32.1158 22.2488ZM36.3756 17.8555C37.0086 17.0328 38.0983 16.4974 39.2856 16.4974H42.0719C43.2593 16.4974 44.3499 17.0332 44.9828 17.8566C44.2582 18.1078 43.6071 18.5346 43.0876 19.0987C42.568 19.6628 42.1962 20.3467 42.0053 21.0894C41.8143 21.8322 41.8102 22.6106 41.9932 23.3554C42.1763 24.1001 42.5408 24.7879 43.0544 25.3575C42.1163 25.7034 41.2939 26.3052 40.6804 27.0946C40.0666 26.3057 39.2443 25.7043 38.3065 25.3583C38.8204 24.7886 39.1852 24.1004 39.3684 23.3553C39.5515 22.6102 39.5473 21.8314 39.3561 21.0883C39.1648 20.3453 38.7926 19.6611 38.2725 19.097C37.7524 18.5329 37.1007 18.1063 36.3756 17.8555ZM40.6806 14.5828C40.1395 14.5828 39.6105 14.4223 39.1606 14.1217C38.7107 13.821 38.36 13.3937 38.153 12.8937C37.9459 12.3938 37.8918 11.8436 37.9974 11.3129C38.103 10.7822 38.3636 10.2947 38.7462 9.91206C39.1289 9.52944 39.6164 9.26889 40.1471 9.16335C40.6779 9.0578 41.228 9.11201 41.7279 9.31912C42.2279 9.52623 42.6552 9.87693 42.9558 10.3269C43.2564 10.7768 43.4168 11.3058 43.4168 11.847C43.4161 12.5724 43.1276 13.268 42.6146 13.781C42.1017 14.294 41.4061 14.5825 40.6806 14.5832V14.5828ZM46.5094 24.9845C45.9682 24.9845 45.4393 24.8241 44.9893 24.5234C44.5394 24.2228 44.1887 23.7955 43.9816 23.2956C43.7745 22.7956 43.7204 22.2455 43.8259 21.7148C43.9315 21.1841 44.192 20.6966 44.5747 20.3139C44.9573 19.9313 45.4448 19.6707 45.9755 19.5651C46.5062 19.4595 47.0564 19.5137 47.5563 19.7207C48.0562 19.9278 48.4836 20.2785 48.7842 20.7284C49.0849 21.1783 49.2454 21.7073 49.2454 22.2484C49.2447 22.9739 48.9562 23.6694 48.4433 24.1825C47.9304 24.6955 47.2348 24.9841 46.5094 24.9849V24.9845ZM41.6379 38.7911V29.8718C41.6379 28.2328 43.1974 26.8994 45.1142 26.8994H47.9006C49.8196 26.8994 51.3808 28.2328 51.3808 29.8718V30.4622C49.1849 34.274 45.7449 37.2148 41.6379 38.7911ZM34.852 1.91406C45.3615 1.91406 53.9106 10.4657 53.9106 20.9773C53.9126 23.2567 53.5038 25.5178 52.7038 27.6522C52.0866 26.5906 51.1174 25.7786 49.9641 25.357C50.534 24.7246 50.9193 23.9479 51.0779 23.1115C51.2365 22.2751 51.1622 21.4113 50.8633 20.6142C50.5644 19.8171 50.0523 19.1175 49.3828 18.5917C48.7134 18.0658 47.9124 17.734 47.0672 17.6323C46.7799 17.0144 46.373 16.4595 45.8699 15.9998C45.3668 15.5401 44.7775 15.1848 44.1362 14.9543C44.7378 14.2862 45.1328 13.4581 45.2734 12.5701C45.4141 11.6822 45.2944 10.7725 44.9288 9.95123C44.5632 9.12991 43.9674 8.43217 43.2135 7.94243C42.4596 7.4527 41.5799 7.19198 40.6809 7.19182C39.7819 7.19166 38.9021 7.45207 38.1481 7.94153C37.394 8.431 36.7979 9.12853 36.4321 9.94972C36.0662 10.7709 35.9461 11.6805 36.0865 12.5685C36.2269 13.4565 36.6216 14.2848 37.2229 14.9531C36.2843 15.2973 35.4617 15.899 34.8494 16.6894C34.2372 15.899 33.4146 15.2973 32.476 14.9531C33.0772 14.2848 33.4719 13.4566 33.6122 12.5686C33.7525 11.6807 33.6324 10.7712 33.2665 9.9501C32.9007 9.129 32.3046 8.43154 31.5506 7.94213C30.7966 7.45272 29.9169 7.19234 29.018 7.1925C28.119 7.19266 27.2394 7.45335 26.4856 7.94303C25.7317 8.43271 25.136 9.13038 24.7704 9.95161C24.4048 10.7728 24.2851 11.6824 24.4257 12.5703C24.5663 13.4581 24.9612 14.2862 25.5627 14.9543C24.9214 15.1848 24.3321 15.5401 23.829 15.9998C23.3259 16.4595 22.919 17.0144 22.6317 17.6323C21.7865 17.734 20.9855 18.0658 20.3161 18.5917C19.6466 19.1175 19.1345 19.8171 18.8356 20.6142C18.5367 21.4113 18.4624 22.2751 18.621 23.1115C18.7796 23.9479 19.1649 24.7246 19.7348 25.357C18.5816 25.7785 17.6124 26.5905 16.9952 27.6519C16.1951 25.5176 15.7863 23.2566 15.7883 20.9773C15.7889 10.4662 24.3407 1.91406 34.852 1.91406ZM18.3195 30.4609V29.8714C18.3195 28.2324 19.8807 26.899 21.7996 26.899H24.5861C26.5029 26.899 28.0623 28.2324 28.0623 29.8714V38.7897C23.9555 37.2132 20.5156 34.2726 18.3195 30.4609ZM29.9768 39.4077V29.8718C29.9768 28.2328 31.538 26.8994 33.457 26.8994H36.2433C38.1623 26.8994 39.7235 28.2328 39.7235 29.8718V39.4088C36.5293 40.252 33.171 40.252 29.9768 39.4088V39.4077ZM66.6986 23.8176C66.6874 23.6225 66.6813 23.4212 66.675 23.2187C66.627 21.669 66.5469 19.0753 63.3833 18.5756C62.3448 18.402 61.2797 18.6456 60.4198 19.2534C60.0662 19.5033 59.7658 19.8209 59.536 20.1879C59.3062 20.5548 59.1516 20.9638 59.0812 21.391C59.0786 21.4074 59.0764 21.424 59.0746 21.4405L57.5009 36.5732C56.1951 36.2642 54.7109 36.4804 53.3546 37.4802L43.2273 44.9531C41.459 46.2614 40.558 48.0799 40.392 50.676L39.9517 57.5196L38.8277 57.3419C38.2718 57.2542 37.7038 57.3906 37.2483 57.7213C36.7929 58.0519 36.4873 58.5498 36.3986 59.1056L35.5646 64.349L35.5638 64.3541C35.4796 64.9091 35.6177 65.475 35.9482 65.9288C36.2787 66.3826 36.7749 66.6877 37.329 66.7778L57.4908 69.9753C58.046 70.0607 58.6125 69.923 59.0666 69.5922C59.5207 69.2614 59.8255 68.7644 59.9144 68.2097L60.7436 62.9638C60.8313 62.4077 60.6948 61.8395 60.364 61.384C60.0332 60.9285 59.5352 60.6229 58.9792 60.5343L57.4011 60.2842L57.752 58.0557C57.8194 57.5784 57.9823 57.1196 58.231 56.7067C58.4798 56.2938 58.8093 55.9353 59.1997 55.6527L63.1984 52.6459C65.2811 51.0829 66.3525 49.0678 66.3829 46.6576L66.7007 23.8857C66.7005 23.8633 66.7 23.8405 66.6986 23.8176ZM58.815 62.509C58.8313 62.5309 58.843 62.5559 58.8495 62.5824C58.8559 62.6089 58.857 62.6365 58.8526 62.6634L58.024 67.9093C58.014 67.9632 57.9838 68.0113 57.9395 68.0437C57.8953 68.0761 57.8404 68.0905 57.7859 68.0838L37.6304 64.8867C37.5763 64.8761 37.5282 64.8452 37.4959 64.8004C37.4637 64.7557 37.4496 64.7003 37.4567 64.6455L38.2894 59.4051C38.2985 59.3509 38.3285 59.3023 38.373 59.27C38.4175 59.2376 38.4729 59.2239 38.5273 59.2319L56.1439 62.0234C56.1485 62.0242 56.1528 62.0256 56.1576 62.0263C56.1624 62.027 56.1634 62.0263 56.1664 62.0263L58.6795 62.4246C58.7066 62.4289 58.7326 62.4386 58.7558 62.4531C58.7791 62.4677 58.7992 62.4866 58.815 62.509ZM64.4681 46.6323C64.445 48.469 63.6762 49.8932 62.0481 51.1152L58.0473 54.123C57.4601 54.5534 56.9643 55.0964 56.5889 55.7203C56.2135 56.3442 55.966 57.0366 55.8608 57.7571L55.5101 59.984L41.851 57.8196L42.3021 50.7976C42.4312 48.7795 43.0678 47.4514 44.3645 46.492L54.4906 39.0205C56.1267 37.8144 57.9161 38.3935 58.7699 39.5508C59.518 40.5654 59.6051 42.1747 57.6057 43.6495L51.5368 48.1295C51.4357 48.2042 51.3502 48.298 51.2853 48.4057C51.2205 48.5134 51.1775 48.6328 51.1587 48.7571C51.14 48.8814 51.1459 49.0081 51.1762 49.1301C51.2065 49.2521 51.2605 49.367 51.3351 49.4681C51.4098 49.5693 51.5036 49.6547 51.6113 49.7196C51.719 49.7844 51.8384 49.8275 51.9627 49.8462C52.087 49.8649 52.2137 49.859 52.3358 49.8287C52.4578 49.7984 52.5726 49.7444 52.6737 49.6698L58.7424 45.1901C61.6798 43.024 61.647 40.2266 60.3109 38.4152C60.0351 38.0429 59.7068 37.7127 59.336 37.4348L60.9759 21.6669C61.0449 21.3155 61.2491 21.0052 61.5445 20.8027C61.9928 20.4923 62.5456 20.3715 63.0826 20.4668C64.5445 20.6979 64.7042 21.4214 64.7616 23.2786C64.768 23.4869 64.7744 23.693 64.7855 23.8938L64.4681 46.6323ZM41.5183 62.6635C41.4713 62.8761 41.3531 63.0663 41.1833 63.2027C41.0136 63.3391 40.8024 63.4135 40.5847 63.4137C40.5147 63.4136 40.4449 63.406 40.3766 63.3909L40.3416 63.3831C40.0937 63.3281 39.8779 63.1769 39.7415 62.9628C39.6051 62.7486 39.5594 62.4891 39.6144 62.2412C39.6694 61.9934 39.8206 61.7775 40.0347 61.6411C40.2488 61.5047 40.5084 61.459 40.7562 61.514L40.7911 61.5218C40.9138 61.549 41.03 61.6001 41.133 61.6722C41.2359 61.7443 41.3237 61.836 41.3912 61.942C41.4588 62.048 41.5047 62.1663 41.5265 62.2901C41.5484 62.4139 41.5456 62.5408 41.5183 62.6635ZM33.3015 59.1054C33.213 58.5497 32.9076 58.0517 32.4524 57.7209C31.9971 57.3901 31.4292 57.2534 30.8733 57.3409L29.7485 57.5187L29.3081 50.6754C29.142 48.0777 28.2407 46.2593 26.4721 44.9556L16.3453 37.4799C14.9905 36.4812 13.5081 36.2645 12.2027 36.5724L10.6256 21.4404C10.6238 21.4238 10.6217 21.4074 10.6191 21.391C10.5487 20.9638 10.3941 20.5548 10.1643 20.1879C9.93451 19.8209 9.63407 19.5033 9.28045 19.2534C8.42133 18.6458 7.35704 18.4021 6.31912 18.5752C3.1534 19.0753 3.07328 21.669 3.02529 23.2187C3.019 23.4217 3.01285 23.6225 3.00164 23.8176C3.00027 23.8405 2.99972 23.8633 3.00013 23.886L3.31787 46.6565C3.34836 49.0677 4.41968 51.0828 6.50164 52.6448L10.4997 55.6512C10.8906 55.934 11.2205 56.2927 11.4695 56.7059C11.7185 57.1192 11.8816 57.5784 11.9489 58.0561L12.3025 60.2833L10.7215 60.5337C10.1659 60.6225 9.66832 60.928 9.33769 61.3831C9.00707 61.8383 8.87045 62.406 8.95779 62.9617L9.78726 68.2105C9.87769 68.7653 10.1836 69.2619 10.6384 69.5922C11.0932 69.9225 11.6601 70.0598 12.2157 69.9742L32.3714 66.7771C32.927 66.6883 33.4247 66.3827 33.7554 65.9274C34.086 65.4721 34.2226 64.9043 34.1351 64.3485L33.3015 59.1054ZM13.8393 57.7574C13.7341 57.0367 13.4865 56.3442 13.1109 55.7201C12.7354 55.0961 12.2394 54.553 11.6518 54.1226L7.65171 51.1148C6.02476 49.8933 5.25545 48.4691 5.23179 46.6313L4.91488 23.893C4.92595 23.6924 4.93238 23.4862 4.93881 23.2777C4.99623 21.4205 5.15591 20.697 6.62045 20.4656C7.15677 20.3716 7.70852 20.4927 8.15621 20.8026C8.45157 21.0052 8.65573 21.3155 8.72482 21.6669L10.3676 37.4322C9.99552 37.7106 9.66598 38.0418 9.38941 38.4152C8.05326 40.2266 8.02044 43.024 10.9574 45.1903L17.0264 49.6703C17.2306 49.8211 17.4864 49.8846 17.7375 49.8467C17.9885 49.8089 18.2142 49.6729 18.365 49.4687C18.5158 49.2644 18.5792 49.0086 18.5414 48.7576C18.5036 48.5066 18.3676 48.2808 18.1633 48.1301L12.0941 43.6498C10.095 42.1753 10.1821 40.566 10.9302 39.5514C11.7836 38.3942 13.5736 37.815 15.2087 39.0206L25.3356 46.4965C26.6327 47.4536 27.2687 48.7797 27.3977 50.7984L27.8489 57.8201L14.1923 59.9841L13.8393 57.7574ZM32.0708 64.8867L11.9197 68.0829C11.8649 68.0906 11.8092 68.0771 11.7641 68.0451C11.7189 68.0131 11.6877 67.9651 11.6769 67.9108L10.8474 62.662C10.8432 62.6353 10.8444 62.608 10.8509 62.5818C10.8574 62.5555 10.8691 62.5308 10.8852 62.5092C10.9011 62.4868 10.9212 62.4679 10.9445 62.4534C10.9678 62.439 10.9937 62.4294 11.0207 62.4251L13.5305 62.0274C13.5364 62.0266 13.542 62.0274 13.5478 62.026C13.5567 62.0246 13.5651 62.0222 13.574 62.0205L31.1739 59.2315C31.1845 59.2298 31.1953 59.2289 31.206 59.2289C31.2554 59.2297 31.303 59.2478 31.3404 59.28C31.3779 59.3122 31.4029 59.3565 31.4111 59.4053L32.2444 64.6487C32.2516 64.7031 32.2375 64.7581 32.2052 64.8024C32.1729 64.8468 32.1248 64.8769 32.0708 64.8867ZM30.0859 62.2416C30.1131 62.3643 30.1159 62.4912 30.0941 62.615C30.0723 62.7388 30.0263 62.8571 29.9588 62.9631C29.8913 63.0692 29.8035 63.1608 29.7005 63.2329C29.5976 63.305 29.4814 63.3562 29.3587 63.3834L29.3237 63.3912C29.2554 63.4062 29.1856 63.4139 29.1156 63.414C28.8795 63.4144 28.6515 63.3275 28.4755 63.17C28.2996 63.0125 28.1881 62.7955 28.1625 62.5608C28.1369 62.326 28.1989 62.0901 28.3368 61.8983C28.4746 61.7066 28.6785 61.5726 28.9092 61.5221L28.944 61.5143C29.0667 61.487 29.1936 61.4842 29.3174 61.506C29.4412 61.5278 29.5595 61.5737 29.6656 61.6413C29.7716 61.7088 29.8633 61.7965 29.9354 61.8995C30.0076 62.0025 30.0587 62.1186 30.0859 62.2413V62.2416Z" fill="#98002E"/>
</g>
<defs>
<clipPath id="clip0_7737_1185">
<rect width="70" height="70" fill="white"/>
</clipPath>
</defs>
</svg>
