<svg width="70" height="70" viewBox="0 0 70 70" fill="none" xmlns="http://www.w3.org/2000/svg">
<path d="M62.2578 63.4375C62.0915 63.4375 61.9253 63.3981 61.7722 63.3238L55.1047 60.0185L48.4394 63.3238C48.074 63.4988 47.6387 63.4659 47.3106 63.2275C46.9825 62.9891 46.8119 62.5866 46.8709 62.1841L48.0303 54.2894C48.1178 53.6922 48.6559 53.2875 49.2706 53.3641C49.8678 53.4538 50.2812 54.0094 50.1937 54.6044L49.3362 60.4341L54.6169 57.8178C54.9253 57.6691 55.2819 57.6691 55.5881 57.8178L60.8709 60.4341L60.0134 54.6044C59.9631 54.2675 60.0747 53.9241 60.3131 53.6813L64.4344 49.466L58.6222 48.4772C58.2853 48.4203 57.9944 48.2081 57.8369 47.9063L55.1025 42.6847L52.3703 47.9063C52.2128 48.2103 51.9219 48.4181 51.5872 48.4794L50.7209 48.6281C50.1237 48.7266 49.5594 48.3306 49.4565 47.7356C49.3537 47.1406 49.754 46.5763 50.349 46.4713L50.6815 46.4144L54.1334 39.8235C54.5119 39.1016 55.6931 39.1038 56.0715 39.8213L59.5234 46.4144L66.8603 47.6613C67.2606 47.7291 67.5909 48.0156 67.7178 48.4028C67.8447 48.79 67.744 49.2144 67.4597 49.5053L62.2578 54.8275L63.3384 62.1863C63.3975 62.5888 63.229 62.9891 62.8987 63.2297C62.7106 63.3675 62.4831 63.4375 62.2578 63.4375Z" fill="#F9E562"/>
<path d="M7.70374 63.4375C7.47624 63.4375 7.25093 63.3675 7.06062 63.2275C6.73249 62.989 6.56406 62.5865 6.62093 62.1862L7.70156 54.8275L2.49968 49.5053C2.21531 49.2144 2.11468 48.79 2.24156 48.4028C2.36843 48.0156 2.69656 47.729 3.09906 47.6612L10.4359 46.4144L13.8878 39.8212C14.0759 39.4625 14.45 39.235 14.8569 39.235C15.2637 39.235 15.6356 39.4625 15.8259 39.8234L19.2778 46.4144L19.6103 46.4712C20.2053 46.5762 20.6056 47.1406 20.5028 47.7356C20.4 48.3306 19.8334 48.7287 19.2384 48.6281L18.3722 48.4794C18.0375 48.4203 17.7466 48.2103 17.5891 47.9062L14.8547 42.6869L12.1203 47.9084C11.9628 48.2103 11.6719 48.4203 11.335 48.4794L5.52281 49.4681L9.64406 53.6834C9.88249 53.9262 9.99406 54.2697 9.94374 54.6065L9.08624 60.4362L14.3691 57.82C14.6775 57.6712 15.0341 57.6712 15.3403 57.82L20.6209 60.4362L19.7634 54.6065C19.6759 54.0115 20.0894 53.4559 20.6866 53.3662C21.3012 53.2919 21.8394 53.6922 21.9269 54.2915L23.0862 62.1862C23.1453 62.5887 22.9769 62.989 22.6466 63.2297C22.3184 63.4703 21.8809 63.5031 21.5178 63.3259L14.8525 60.0206L8.18499 63.3259C8.03624 63.3981 7.86999 63.4375 7.70374 63.4375Z" fill="#F9E562"/>
<path d="M46.4003 52.6749C46.2341 52.6749 46.0678 52.6356 45.9147 52.5612L35.0012 47.1537L24.0878 52.5634C23.7225 52.7406 23.2872 52.7056 22.9591 52.4671C22.6309 52.2287 22.4603 51.8262 22.5194 51.4237L24.2891 39.3728L15.7731 30.6643C15.4887 30.3734 15.3881 29.949 15.515 29.5618C15.6419 29.1746 15.97 28.8881 16.3725 28.8203L28.3819 26.7793L29.8737 23.9312C30.1537 23.3974 30.8144 23.1918 31.3503 23.4674C31.8862 23.7496 32.0919 24.4103 31.8119 24.944L30.0706 28.2712C29.9131 28.5753 29.6222 28.7853 29.2853 28.8443L18.8006 30.6249L26.2337 38.2287C26.4722 38.4715 26.5837 38.8149 26.5334 39.1518L24.9869 49.6737L34.5134 44.9531C34.8219 44.8043 35.1784 44.8043 35.4847 44.9531L45.0112 49.6737L43.4647 39.1518C43.4144 38.8149 43.5259 38.4715 43.7644 38.2287L51.1975 30.6249L40.7128 28.8443C40.3759 28.7874 40.085 28.5753 39.9275 28.2712L35.0012 18.8562L33.9556 20.8534C33.6756 21.3893 33.015 21.5928 32.4791 21.3171C31.9431 21.0371 31.7375 20.3743 32.0175 19.8406L34.0322 15.9906C34.4084 15.2687 35.5919 15.2709 35.9703 15.9884L41.6206 26.7793L53.63 28.8203C54.0303 28.8881 54.3606 29.1746 54.4875 29.5618C54.6144 29.949 54.5137 30.3734 54.2294 30.6643L45.7134 39.3728L47.4831 51.4237C47.5422 51.8262 47.3737 52.2265 47.0434 52.4671C46.8531 52.6049 46.6256 52.6749 46.4003 52.6749Z" fill="#F9E562"/>
<path d="M44.2106 12.7684C44.0706 12.7684 43.9284 12.7422 43.7928 12.6853C43.2349 12.4556 42.9703 11.8147 43.1999 11.2568L45.709 5.19528C45.9409 4.63747 46.584 4.3706 47.1374 4.60247C47.6953 4.83216 47.9599 5.4731 47.7303 6.03091L45.2212 12.0925C45.0484 12.5147 44.6393 12.7684 44.2106 12.7684Z" fill="#F9E562"/>
<path d="M52.0162 17.9856C51.7362 17.9856 51.4562 17.8784 51.2418 17.6662C50.8152 17.2396 50.8152 16.5462 51.2418 16.1196L55.8815 11.48C56.308 11.0534 57.0015 11.0534 57.428 11.48C57.8546 11.9065 57.8546 12.6 57.428 13.0265L52.7884 17.6662C52.5762 17.8784 52.2962 17.9856 52.0162 17.9856Z" fill="#F9E562"/>
<path d="M57.234 25.7907C56.8053 25.7907 56.3984 25.5369 56.2234 25.1147C55.9937 24.5569 56.2584 23.916 56.8162 23.6863L62.8778 21.1772C63.4356 20.9432 64.0765 21.2122 64.3062 21.7701C64.5359 22.3279 64.2712 22.9688 63.7134 23.1985L57.6518 25.7076C57.5162 25.7644 57.374 25.7907 57.234 25.7907Z" fill="#F9E562"/>
<path d="M12.7721 25.7907C12.6321 25.7907 12.4899 25.7644 12.3543 25.7076L6.29276 23.1985C5.73494 22.9688 5.47026 22.3279 5.69994 21.7701C5.93182 21.2122 6.57494 20.9432 7.12838 21.1772L13.1899 23.6863C13.7478 23.916 14.0124 24.5569 13.7828 25.1147C13.6078 25.5369 13.2009 25.7907 12.7721 25.7907Z" fill="#F9E562"/>
<path d="M17.9918 17.9856C17.7118 17.9856 17.4318 17.8784 17.2174 17.6662L12.5777 13.0243C12.1512 12.5978 12.1512 11.9043 12.5777 11.4778C13.0043 11.0512 13.6977 11.0512 14.1243 11.4778L18.764 16.1174C19.1905 16.544 19.1905 17.2374 18.764 17.664C18.5518 17.8784 18.2718 17.9856 17.9918 17.9856Z" fill="#F9E562"/>
<path d="M25.7999 12.7685C25.3712 12.7685 24.9643 12.5147 24.7893 12.0925L22.2781 6.03097C22.0484 5.47316 22.3131 4.83222 22.8709 4.60253C23.4287 4.36847 24.0696 4.63753 24.2993 5.19535L26.8106 11.2569C27.0403 11.8147 26.7756 12.4557 26.2178 12.6853C26.0799 12.7422 25.9378 12.7685 25.7999 12.7685Z" fill="#F9E562"/>
<path d="M35 10.9375C34.3963 10.9375 33.9062 10.4475 33.9062 9.84375V3.28125C33.9062 2.6775 34.3963 2.1875 35 2.1875C35.6037 2.1875 36.0938 2.6775 36.0938 3.28125V9.84375C36.0938 10.4475 35.6037 10.9375 35 10.9375Z" fill="#F9E562"/>
</svg>
