<svg width="100" height="100" viewBox="0 0 100 100" fill="none" xmlns="http://www.w3.org/2000/svg">
<path d="M12.0312 67.2656L8.35937 68.4531L5.23437 58.8906L2.26562 59.8594L5.39062 69.4062C5.64062 70.2031 6.20313 70.8594 6.9375 71.2344C7.67188 71.6094 8.51562 71.6875 9.32812 71.4219L13 70.2344C14.7187 73.375 16.8281 76.2969 19.3125 78.9375L17.0469 82.0625C16.5469 82.7344 16.3438 83.5625 16.4688 84.375C16.5938 85.2031 17.0469 85.9375 17.7188 86.4375L25.2969 91.9375C25.9844 92.4375 26.8125 92.6406 27.6406 92.5C28.4687 92.375 29.1875 91.9219 29.6719 91.25L31.9531 88.1406C35.2031 89.7031 38.6406 90.8125 42.1719 91.4688V95.3281C42.1719 97.0469 43.5781 98.4531 45.2969 98.4531H54.6719C56.3906 98.4531 57.7969 97.0469 57.7969 95.3281V91.4688C61.3281 90.8125 64.7656 89.6875 68.0313 88.125L70.2812 91.2344C70.7656 91.9219 71.4844 92.3594 72.3125 92.5C73.1562 92.6406 73.9844 92.4375 74.6562 91.9375L82.2344 86.4375C82.9219 85.9375 83.3594 85.2031 83.4844 84.375C83.6094 83.5469 83.4062 82.7344 82.9219 82.0625L80.6719 78.9219C83.1406 76.3125 85.2656 73.3906 86.9687 70.2187L90.6406 71.4219C91.4375 71.6719 92.2813 71.6094 93.0313 71.2344C93.7813 70.8437 94.3281 70.2031 94.5781 69.4062L97.7031 59.8437L94.7344 58.875L91.6094 68.4531L87.9375 67.25C86.5312 66.7813 84.9844 67.4063 84.2188 68.7344C82.6406 71.6406 80.6719 74.3438 78.3906 76.7656C77.3437 77.875 77.2344 79.5625 78.125 80.75L80.3906 83.875L72.8125 89.375L70.5312 86.2344C69.6406 85.0312 68.0469 84.625 66.6562 85.2656C63.6406 86.7031 60.4688 87.7344 57.2344 88.3438C55.75 88.625 54.6562 89.9062 54.6562 91.4062V95.2656H45.2812V91.4062C45.2812 89.9062 44.2031 88.6094 42.7031 88.3438C39.4531 87.7344 36.2812 86.7031 33.25 85.25C31.875 84.625 30.2812 85.0156 29.3906 86.2344L27.125 89.3594L19.5469 83.8594L21.7969 80.75C22.7031 79.5469 22.5937 77.8594 21.5312 76.75C19.25 74.3281 17.2813 71.625 15.6875 68.6875C14.9375 67.3906 13.3906 66.7656 11.9844 67.2344L12.0312 67.2656Z" fill="black"/>
<path d="M50 82.8125C64.4219 82.8125 77 73.5781 81.2969 59.8437L78.3125 58.9062C74.4219 71.3281 63.0469 79.6875 49.9844 79.6875C36.9219 79.6875 25.5469 71.3438 21.6562 58.9062L18.6719 59.8437C22.9688 73.5781 35.5469 82.8125 49.9687 82.8125H50Z" fill="black"/>
<path d="M1.5625 53.125H98.4375V56.25H1.5625V53.125Z" fill="black"/>
<path d="M92.1875 50V28.125C92.1875 27.2656 91.4844 26.5625 90.625 26.5625H78.125V3.125C78.125 2.26562 77.4219 1.5625 76.5625 1.5625H57.8125C56.9531 1.5625 56.25 2.26562 56.25 3.125V18.75H43.75V12.5C43.75 12.0312 43.5469 11.5938 43.1875 11.2969L33.8125 3.48438C33.2344 3 32.3906 3 31.8125 3.48438L22.4375 11.2969C22.0781 11.5938 21.875 12.0312 21.875 12.5V25H9.375C8.51562 25 7.8125 25.7031 7.8125 26.5625V50H10.9375V28.125H21.875V50H25V13.2344L32.8125 6.71875L40.625 13.2344V50H43.75V21.875H56.25V50H59.375V4.6875H75V50H78.125V29.6875H89.0625V50H92.1875Z" fill="black"/>
<path d="M62.5 9.375H65.625V12.5H62.5V9.375Z" fill="black"/>
<path d="M68.75 9.375H71.875V12.5H68.75V9.375Z" fill="black"/>
<path d="M62.5 17.1875H65.625V20.3125H62.5V17.1875Z" fill="black"/>
<path d="M68.75 17.1875H71.875V20.3125H68.75V17.1875Z" fill="black"/>
<path d="M62.5 25H65.625V28.125H62.5V25Z" fill="black"/>
<path d="M68.75 25H71.875V28.125H68.75V25Z" fill="black"/>
<path d="M28.125 15.625H37.5V18.75H28.125V15.625Z" fill="black"/>
<path d="M28.125 23.4375H37.5V26.5625H28.125V23.4375Z" fill="black"/>
</svg>
