<svg xmlns="http://www.w3.org/2000/svg" shape-rendering="geometricPrecision" text-rendering="geometricPrecision" image-rendering="optimizeQuality" fill-rule="evenodd" clip-rule="evenodd" viewBox="0 0 417.997 512.376"><path d="M257.328 300.392l.087-.49 75.128-29.618-69.005 39.591c11.457 11.034 24.863 16.846 40.057 17.844 31.328 2.061 60.229-11.881 79.56-36.126 3.653-4.581 6.842-9.709 9.637-15.061 3.389-6.482 15.545-28.351 13.797-33.557-2.563-7.619-38.346-12.884-46.519-14.003-38.277-5.239-84.234-.041-101.42 37.558-1.991-9.834-.861-24.089 1.311-37.77 30.182-.916 57.431-13.53 77.357-33.458 20.705-20.703 33.513-49.309 33.513-80.894 0-31.589-12.808-60.192-33.513-80.894C316.615 12.808 288.013 0 256.424 0c-31.586 0-60.189 12.808-80.894 33.511-20.703 20.705-33.511 49.308-33.511 80.897 0 31.589 12.808 60.191 33.511 80.897 17.615 17.612 40.944 29.51 66.964 32.67 1.034 11.066 1.617 22.363 1.397 30.704-12.684-25.144-44.597-34.644-73.014-36.517-6.926-.455-37.268-2.174-40.663 3.664-2.325 3.996 3.995 24.049 5.685 29.96 1.394 4.873 3.157 9.637 5.392 14.029 11.817 23.225 33.268 39.599 59.409 43.176 12.666 1.734 24.686-.785 35.99-7.926l-50.126-44.249 54.12 35.291-.008.382c3.354 11.695 3.653 16.302 1.678 29.742-13.037-1.391-29.119.989-29.547 9.652-20.259-13.67-37.787-12.641-45.224-1.146-17.507-4.85-34.357-4.795-62.093-4.702l-8.741.003c-.713-6.766-6.467-12.072-13.417-12.072H13.493C6.065 317.966 0 324.031 0 331.458v136.015c0 7.428 6.065 13.493 13.493 13.493h69.839c6.236 0 11.513-4.277 13.043-10.043l47.436 24.448c38.103 22.286 76.229 23.06 114.378-.014 25.046-11.556 49.88-24.521 74.464-38.964 24.712-14.516 49.044-30.441 72.956-47.85l.658-.557c8.167-8.065 11.727-17.293 11.73-26.048.003-6.216-1.797-12.159-5.018-17.253-3.207-5.079-7.814-9.332-13.435-12.196-8.526-4.352-19.395-5.561-31.212-1.659l-.745.305-32.006 15.87c-3.505-27.476-20.317-30.586-41.092-19.514 7.984-22.126-24.155-19.221-36.355-15.916-3.041-12.983-4.865-18.827-.806-31.183zm-35.27-195.174l5.827-13.127h21.981c-.278-.937-.757-1.853-1.452-2.746a10.274 10.274 0 00-2.566-2.328 14.162 14.162 0 00-3.401-1.592c-1.255-.417-2.586-.617-3.981-.617h-16.408l5.827-13.127h62.916l-5.83 13.127h-15.194c.594.458 1.151.994 1.67 1.612.516.597.974 1.215 1.371 1.89.38.655.716 1.313.995 1.969.258.658.437 1.272.519 1.812h16.469l-5.83 13.127h-11.912c-.876 2.226-2.169 4.334-3.899 6.323-1.731 2.009-3.74 3.78-6.028 5.372-2.308 1.591-4.795 2.905-7.479 3.998a35.811 35.811 0 01-8.176 2.189l33.059 34.032H254.4l-29.478-32.343v-12.054h13.049a11.23 11.23 0 003.699-.617 13.798 13.798 0 003.38-1.67 12.402 12.402 0 002.688-2.386c.754-.916 1.293-1.85 1.609-2.844h-27.289zm34.368-79.781c49.138 0 88.971 39.834 88.971 88.971s-39.833 88.971-88.971 88.971c-49.136 0-88.97-39.834-88.97-88.971s39.834-88.971 88.97-88.971zm-.002-12.014c55.77 0 100.984 45.215 100.984 100.985 0 55.77-45.214 100.984-100.984 100.984-55.77 0-100.982-45.214-100.982-100.984 0-55.77 45.212-100.985 100.982-100.985zM98.489 341.527v117.571l50.85 26.231c34.389 20.207 68.764 20.943 103.107.09l.664-.36a838.003 838.003 0 0073.745-38.552c24.091-14.151 47.991-29.8 71.686-47.024 5.561-5.633 7.993-11.811 7.993-17.545 0-3.992-1.168-7.834-3.262-11.141-2.099-3.329-5.169-6.141-8.941-8.063-5.905-3.012-13.57-3.821-22.105-1.09l-63.543 31.505-5.804 13.55-.449.832c-7.344 11.51-17.01 18.659-28.473 22.923-11.051 4.117-23.656 5.465-37.389 5.477-1.757 0-3.868.212-6.007.42-3.421.331-6.909.673-10.356.406-7.752-.165-12.759-4.076-15.043-9.019a14.946 14.946 0 01-1.36-6.619c.052-2.252.62-4.505 1.681-6.537 2.534-4.859 7.752-8.489 15.418-8.112l.226.023c10.179.913 20.221 1.528 29.484.548 8.738-.925 16.809-3.308 23.657-8.326l.159-.113c3.873-2.653 6.184-5.52 7.207-8.303.795-2.166.809-4.323.186-6.277-.664-2.081-2.061-4.032-4.016-5.638-2.765-2.273-6.63-3.833-11.204-4.17h-44.307a5.907 5.907 0 01-3.056-.901c-50.879-32.032-63.528-31.986-113.747-31.815l-7.001.029z"/></svg>