<svg width="100" height="100" viewBox="0 0 100 100" fill="none" xmlns="http://www.w3.org/2000/svg">
<mask id="mask0_7737_1297" style="mask-type:luminance" maskUnits="userSpaceOnUse" x="0" y="0" width="100" height="100">
<path d="M0 7.62939e-06H100V100H0V7.62939e-06Z" fill="white"/>
</mask>
<g mask="url(#mask0_7737_1297)">
<path d="M3.76562 52.9297V16.1377L18.4141 1.46485H65.2891V50.8109" stroke="black" stroke-width="3" stroke-miterlimit="10"/>
<path d="M31.9762 77.4651H3.76562V55.9571" stroke="black" stroke-width="3" stroke-miterlimit="10"/>
</g>
<path d="M61.2414 77.4651H48.4844" stroke="black" stroke-width="3" stroke-miterlimit="10"/>
<path d="M65.2891 55.3165V69.676" stroke="black" stroke-width="3" stroke-miterlimit="10"/>
<mask id="mask1_7737_1297" style="mask-type:luminance" maskUnits="userSpaceOnUse" x="0" y="0" width="100" height="100">
<path d="M0 7.62939e-06H100V100H0V7.62939e-06Z" fill="white"/>
</mask>
<g mask="url(#mask1_7737_1297)">
<path d="M24.2891 19.2504C24.2891 13.5941 28.8744 9.0086 34.5309 9.0086C40.1871 9.0086 44.7725 13.5941 44.7725 19.2504C44.7725 24.9066 40.1871 29.4922 34.5309 29.4922C28.8744 29.4922 24.2891 24.9066 24.2891 19.2504Z" stroke="black" stroke-width="3" stroke-miterlimit="10"/>
<path d="M30.1328 18.3687L33.0156 22.3599L38.9219 15.3599" stroke="black" stroke-width="3" stroke-miterlimit="10"/>
<path d="M12.5781 36.9141H38.9209" stroke="black" stroke-width="3" stroke-miterlimit="10"/>
<path d="M12.5781 44.3359H38.9209" stroke="black" stroke-width="3" stroke-miterlimit="10"/>
<path d="M12.5781 51.5503H38.9209" stroke="black" stroke-width="3" stroke-miterlimit="10"/>
<path d="M12.5781 58.7949H27.2021" stroke="black" stroke-width="3" stroke-miterlimit="10"/>
<path d="M3.76562 16.1377H18.4141V1.46484" stroke="black" stroke-width="3" stroke-miterlimit="10"/>
<path d="M61.3828 91.6016H56.5V84.8633H24.2979V91.6016H19.3906V98.5107H24.2979V98.5352H56.5V98.5107H61.3828V91.6016Z" stroke="black" stroke-width="3" stroke-miterlimit="10"/>
<path d="M45.7812 91.6016H56.499" stroke="black" stroke-width="3" stroke-miterlimit="10"/>
<path d="M24.2969 91.6016H42.8271" stroke="black" stroke-width="3" stroke-miterlimit="10"/>
<path d="M62.148 75.9189L51.6016 69.7137L55.1309 63.7158L65.2904 69.676" stroke="black" stroke-width="3" stroke-miterlimit="10"/>
<path d="M86.6791 80.1274L93.5953 84.1968C96.135 85.6911 96.9824 88.9612 95.4881 91.5009C93.9937 94.0405 90.7236 94.8878 88.184 93.3936L67.2812 81.0946L72.6926 71.8977L84.1646 78.6479" stroke="black" stroke-width="3" stroke-miterlimit="10"/>
<path d="M59.3441 56.5582L47.3922 76.8711L35.3203 69.7682L47.2723 49.4551L59.3441 56.5582Z" stroke="black" stroke-width="3" stroke-miterlimit="10"/>
<path d="M49.2657 82.8067C48.0994 84.7887 45.5473 85.45 43.5653 84.2838L30.6936 76.7104C28.7116 75.544 28.0502 72.992 29.2164 71.01C30.3826 69.0279 32.9348 68.3664 34.9168 69.5328L47.7885 77.1063C49.7705 78.2725 50.4319 80.8248 49.2657 82.8067Z" stroke="black" stroke-width="3" stroke-miterlimit="10"/>
<path d="M65.4375 55.3164C64.2713 57.2982 61.7191 57.9595 59.7371 56.7933L46.8656 49.2199C44.8836 48.0537 44.222 45.5015 45.3883 43.5197C46.5543 41.5375 49.1066 40.8761 51.0886 42.0423L63.9603 49.6158C65.9424 50.7822 66.6037 53.3343 65.4375 55.3164Z" stroke="black" stroke-width="3" stroke-miterlimit="10"/>
<path d="M73.1444 71.1381L66.8389 81.8543C65.8514 83.5326 63.6903 84.0928 62.0119 83.1051C60.3338 82.1176 59.7735 79.9565 60.761 78.2782L67.0664 67.5618C68.0539 65.8836 70.2151 65.3235 71.8934 66.311C73.5717 67.2985 74.1319 69.4596 73.1444 71.1381Z" stroke="black" stroke-width="3" stroke-miterlimit="10"/>
</g>
</svg>
