<svg width="100" height="100" viewBox="0 0 100 100" fill="none" xmlns="http://www.w3.org/2000/svg">
<path d="M22.1187 62.1515C22.649 61.8181 22.8157 61.1212 22.4823 60.5909C22.149 60.0606 21.452 59.8939 20.9217 60.2272C19.8611 60.8939 18.9066 60.8939 17.846 60.2272C17.3157 59.8939 16.6187 60.0454 16.2702 60.5757C15.9369 61.106 16.0884 61.803 16.6187 62.1363C17.5126 62.6969 18.4369 62.9848 19.3611 62.9848C20.2853 62.9848 21.2247 62.7121 22.1187 62.1515Z" fill="black"/>
<path d="M16.3786 55.7727C17.0061 55.7727 17.5149 55.264 17.5149 54.6364C17.5149 54.0088 17.0061 53.5 16.3786 53.5C15.751 53.5 15.2422 54.0088 15.2422 54.6364C15.2422 55.264 15.751 55.7727 16.3786 55.7727Z" fill="black"/>
<path d="M22.3629 55.7727C22.9905 55.7727 23.4993 55.264 23.4993 54.6364C23.4993 54.0088 22.9905 53.5 22.3629 53.5C21.7353 53.5 21.2266 54.0088 21.2266 54.6364C21.2266 55.264 21.7353 55.7727 22.3629 55.7727Z" fill="black"/>
<path d="M83.3765 62.1515C83.9068 61.8181 84.0735 61.1212 83.7401 60.5909C83.4068 60.0606 82.7098 59.8939 82.1795 60.2272C81.1189 60.8939 80.1644 60.8939 79.1038 60.2272C78.5735 59.8939 77.8765 60.0454 77.528 60.5757C77.1947 61.106 77.3462 61.803 77.8765 62.1363C78.7704 62.6969 79.6947 62.9848 80.6189 62.9848C81.5432 62.9848 82.4674 62.7121 83.3765 62.1515Z" fill="black"/>
<path d="M77.6364 55.7727C78.264 55.7727 78.7727 55.264 78.7727 54.6364C78.7727 54.0088 78.264 53.5 77.6364 53.5C77.0088 53.5 76.5 54.0088 76.5 54.6364C76.5 55.264 77.0088 55.7727 77.6364 55.7727Z" fill="black"/>
<path d="M83.6207 55.7727C84.2483 55.7727 84.7571 55.264 84.7571 54.6364C84.7571 54.0088 84.2483 53.5 83.6207 53.5C82.9931 53.5 82.4844 54.0088 82.4844 54.6364C82.4844 55.264 82.9931 55.7727 83.6207 55.7727Z" fill="black"/>
<path d="M29.1364 36.2576H32.4394C33.0606 36.2576 33.5758 35.7424 33.5758 35.1212C33.5758 34.5 33.0606 33.9849 32.4394 33.9849H29.1364C28.5152 33.9849 28 34.5 28 35.1212C28 35.7424 28.5152 36.2576 29.1364 36.2576Z" fill="black"/>
<path d="M68.6797 35.1212C68.6797 35.7424 69.1948 36.2576 69.8161 36.2576H73.1191C73.7403 36.2576 74.2554 35.7424 74.2554 35.1212C74.2554 34.5 73.7403 33.9849 73.1191 33.9849H69.8161C69.1948 33.9849 68.6797 34.5 68.6797 35.1212Z" fill="black"/>
<path d="M67.6144 29.1212C67.781 29.5757 68.2204 29.8636 68.6901 29.8636C68.8113 29.8636 68.9477 29.8485 69.0841 29.7879L72.1901 28.6667C72.781 28.4545 73.0841 27.803 72.8719 27.2121C72.6598 26.6212 72.0083 26.3182 71.4174 26.5303L68.3113 27.6515C67.7053 27.8788 67.4022 28.5303 67.6144 29.1212Z" fill="black"/>
<path d="M65.439 24.2424C65.6965 24.2424 65.9541 24.1515 66.1662 23.9697L68.6965 21.8485C69.1814 21.4394 69.242 20.7273 68.8329 20.2424C68.4238 19.7576 67.7117 19.697 67.2268 20.1061L64.6965 22.2273C64.2117 22.6364 64.1511 23.3485 64.5602 23.8333C64.8026 24.1061 65.1208 24.2424 65.439 24.2424Z" fill="black"/>
<path d="M59.9094 19.9243C60.0912 20.0304 60.2882 20.0758 60.47 20.0758C60.864 20.0758 61.2427 19.8788 61.4549 19.5001L63.1064 16.6516C63.4246 16.1061 63.2276 15.4092 62.6973 15.1061C62.1518 14.7879 61.4549 14.9849 61.1518 15.5152L59.5003 18.3637C59.1821 18.9243 59.364 19.6061 59.9094 19.9243Z" fill="black"/>
<path d="M54.1786 17.8485C54.2392 17.8637 54.3149 17.8637 54.3755 17.8637C54.921 17.8637 55.3907 17.4697 55.4968 16.9243L56.0574 13.6667C56.1634 13.0455 55.7543 12.4546 55.1331 12.3485C54.5119 12.2425 53.921 12.6515 53.8149 13.2728L53.2392 16.5152C53.1483 17.1364 53.5574 17.7273 54.1786 17.8485Z" fill="black"/>
<path d="M47.8778 17.8636C47.9384 17.8636 48.0141 17.8636 48.0747 17.8485C48.6959 17.7424 49.105 17.1515 48.999 16.5303L48.4232 13.2879C48.3171 12.6667 47.7262 12.2576 47.105 12.3636C46.4838 12.4697 46.0747 13.0606 46.1808 13.6818L46.7565 16.9243C46.8626 17.4697 47.3475 17.8636 47.8778 17.8636Z" fill="black"/>
<path d="M40.8003 19.5151C41.0124 19.8787 41.3912 20.0908 41.7851 20.0908C41.9821 20.0908 42.1791 20.0454 42.3457 19.9393C42.8912 19.6212 43.073 18.9242 42.7548 18.3939L41.1033 15.5454C40.7851 14.9999 40.1033 14.8181 39.5578 15.1363C39.0124 15.4545 38.8306 16.1515 39.1488 16.6818L40.8003 19.5151Z" fill="black"/>
<path d="M36.0706 23.9849C36.2979 24.1667 36.5554 24.2424 36.813 24.2424C37.1312 24.2424 37.4645 24.1061 37.6766 23.8333C38.0857 23.3485 38.0251 22.6364 37.5403 22.2273L35.01 20.1061C34.5251 19.697 33.813 19.7576 33.4039 20.2424C32.9948 20.7273 33.0554 21.4394 33.5403 21.8485L36.0706 23.9849Z" fill="black"/>
<path d="M30.0704 28.6666L33.1613 29.7878C33.2825 29.8333 33.4189 29.8636 33.5553 29.8636C34.025 29.8636 34.4492 29.5757 34.631 29.1212C34.8432 28.5303 34.5401 27.8788 33.9492 27.6666L30.8583 26.5454C30.2674 26.3333 29.6159 26.6363 29.4038 27.2272C29.1765 27.803 29.4795 28.4545 30.0704 28.6666Z" fill="black"/>
<path d="M89.4815 66.7576H85.9967V66.4697C88.6634 64.9242 90.6028 62.2576 91.1331 59.0606C91.2088 58.6969 91.2543 58.303 91.2846 57.8939C93.8755 56.2424 95.4815 53.3939 95.4815 50.2879V48.9242C95.4815 42.4545 90.7088 37.1818 84.8452 37.1818H79.1937C76.3755 37.1818 73.9664 39.0757 72.9512 41.7576C68.9512 42.106 65.7846 45.803 65.7846 50.2879C65.7846 53.3939 67.3906 56.2424 69.9967 57.9091C70.2391 61.5606 72.2846 64.697 75.2694 66.4545V66.7727H71.7846C71.7088 66.7727 71.6482 66.803 71.5725 66.8182C69.6179 63.9848 66.3452 62.1212 62.6331 62.1212H57.7694V61.5606C59.5876 61.5303 61.0573 60.0606 61.0573 58.2273C61.0573 56.4091 59.5876 54.9242 57.7846 54.8939C57.8755 52.2727 59.1179 49.7273 61.2543 47.8788C61.83 47.3788 62.3906 46.8182 62.8755 46.2424C63.2846 45.7576 63.224 45.0454 62.7543 44.6363C62.2694 44.2273 61.5573 44.2879 61.1482 44.7576C60.724 45.2576 60.2694 45.7273 59.7694 46.1515C57.1482 48.4394 55.6179 51.606 55.5118 54.8788H46.9967C46.8452 51.6212 45.2846 48.5 42.6179 46.2424C39.1785 43.3182 37.4815 38.8788 38.1027 34.3636C38.9058 28.5151 43.7543 23.803 49.6179 23.1515C53.4209 22.7273 57.0724 23.8939 59.8906 26.4242C62.6785 28.9242 64.2694 32.4848 64.2694 36.2273C64.2694 38.2273 63.83 40.1515 62.9664 41.9394C62.6937 42.5 62.9361 43.1818 63.4967 43.4545C64.0724 43.7273 64.7391 43.4848 65.0118 42.9242C66.027 40.8333 66.5421 38.5757 66.5421 36.2273C66.5421 31.8485 64.6634 27.6515 61.4058 24.7273C58.1331 21.803 53.7694 20.4091 49.3603 20.8939C42.4664 21.6515 36.7846 27.197 35.8452 34.0454C35.1179 39.3333 37.1027 44.5303 41.1331 47.9697C43.2846 49.7879 44.5573 52.2879 44.7088 54.8788C42.9058 54.9091 41.4361 56.3939 41.4361 58.2121C41.4361 59.9545 42.7846 61.3636 44.4815 61.5151V62.106H39.6179C35.7846 62.106 32.4209 64.106 30.4815 67.106C29.7391 66.8939 28.9815 66.7576 28.2088 66.7576H24.724V66.4697C27.3906 64.9242 29.33 62.2576 29.8603 59.0606C29.9361 58.6969 29.9815 58.303 30.0118 57.8939C32.6027 56.2424 34.2088 53.3939 34.2088 50.2879V48.9242C34.2088 42.4545 29.4361 37.1818 23.5724 37.1818H17.9209C15.1027 37.1818 12.6937 39.0757 11.6785 41.7576C7.6785 42.106 4.51184 45.803 4.51184 50.2879C4.51184 53.3939 6.1179 56.2424 8.72396 57.9091C8.96638 61.5606 11.0118 64.697 13.9967 66.4545V66.7727H10.5118C5.75426 66.7727 1.89062 70.6363 1.89062 75.3939V86.5303C1.89062 87.1515 2.40578 87.6666 3.02699 87.6666H25.3603C25.9815 87.6666 26.4967 87.1515 26.4967 86.5303C26.4967 85.9091 25.9815 85.3939 25.3603 85.3939H4.16335V75.3939C4.16335 71.8939 7.01184 69.0454 10.5118 69.0454H14.0573C14.33 71.7424 16.6027 73.8788 19.3603 73.8788C22.1331 73.8788 24.4058 71.7576 24.6785 69.0454H28.224C28.6482 69.0454 29.0573 69.0909 29.4664 69.1666C29.027 70.3485 28.7694 71.6363 28.7694 72.9697V86.5303C28.7694 87.1515 29.2846 87.6666 29.9058 87.6666H72.3603C72.9815 87.6666 73.4967 87.1515 73.4967 86.5303V72.9697C73.4967 71.5757 73.224 70.2576 72.7543 69.0303H75.3149C75.5876 71.7273 77.8603 73.8636 80.6179 73.8636C83.3906 73.8636 85.6634 71.7424 85.9361 69.0303H89.4815C92.9815 69.0303 95.83 71.8788 95.83 75.3788V85.3788H76.8906C76.2694 85.3788 75.7543 85.8939 75.7543 86.5151C75.7543 87.1363 76.2694 87.6515 76.8906 87.6515H96.9664C97.5876 87.6515 98.1028 87.1363 98.1028 86.5151V75.3788C98.1028 70.6363 94.2391 66.7576 89.4815 66.7576ZM6.78456 50.2879C6.78456 47.2727 8.66335 44.7273 11.1634 44.1363V44.5909C11.1634 45.2121 11.6785 45.7273 12.2997 45.7273C12.9209 45.7273 13.4361 45.2121 13.4361 44.5909C13.4361 41.7576 15.4512 39.4545 17.9209 39.4545H23.5724C28.1937 39.4545 31.9361 43.697 31.9361 48.9242V50.2879C31.9361 52.0606 31.2391 53.7273 30.0421 54.9697V50.0151C30.0421 49.6363 29.8603 49.2879 29.5421 49.0757C29.2391 48.8636 28.8452 48.8182 28.4967 48.9545C27.5724 49.3182 26.5876 49.4848 25.5421 49.4848C22.3755 49.4848 19.4815 47.7424 17.9967 44.9394C17.7997 44.5757 17.4209 44.3333 17.0118 44.3333C16.5573 44.3182 16.2088 44.5454 16.0118 44.9091C15.7543 45.3636 15.4512 45.7576 15.0876 46.1212C13.7543 47.5303 11.8755 48.2727 9.93608 48.0454C9.6179 48.0151 9.28456 48.106 9.05729 48.3333C8.81487 48.5454 8.6785 48.8636 8.6785 49.1818V54.9697C7.49669 53.7424 6.78456 52.0757 6.78456 50.2879ZM10.9664 57.2121V50.3636C13.1785 50.2576 15.224 49.3182 16.7391 47.7273C16.8149 47.6515 16.8906 47.5757 16.9664 47.5C18.9815 50.1666 22.1482 51.7727 25.5724 51.7727C26.33 51.7727 27.0724 51.697 27.7997 51.5454V57.2273V57.2576V57.2727C27.7997 57.7727 27.7543 58.1969 27.6634 58.6515C26.9815 62.7121 23.4967 65.6515 19.3755 65.6515C14.724 65.6363 10.9664 61.8636 10.9664 57.2121ZM22.4664 68.4848C22.4664 70.197 21.0724 71.5909 19.3603 71.5909C17.6482 71.5909 16.2694 70.197 16.2694 68.4848V67.4545C17.2543 67.7576 18.2846 67.9091 19.3603 67.9091C20.4361 67.9091 21.4815 67.7424 22.4664 67.4394V68.4848ZM46.7694 61.5454H51.1331H55.4967V64C55.4967 66.4091 53.5421 68.3788 51.1179 68.3788C48.724 68.3788 46.7694 66.4242 46.7694 64V61.5454ZM43.7088 58.2121C43.7088 57.6212 44.1785 57.1515 44.7694 57.1515H57.7088C58.2997 57.1515 58.7694 57.6212 58.7694 58.2121C58.7694 58.803 58.2997 59.2727 57.7088 59.2727H51.1179H45.6179H44.7694C44.1937 59.2727 43.7088 58.803 43.7088 58.2121ZM71.2088 85.3939H31.0421V72.9697C31.0421 68.2273 34.8906 64.3788 39.6331 64.3788H44.5421C44.7391 67.8636 47.6027 70.6515 51.1331 70.6515C54.6634 70.6515 57.5421 67.8636 57.7391 64.3788H62.6331C67.3755 64.3788 71.224 68.2273 71.224 72.9697V85.3939H71.2088ZM68.0421 50.2879C68.0421 47.2727 69.9209 44.7273 72.4209 44.1363V44.5909C72.4209 45.2121 72.9361 45.7273 73.5573 45.7273C74.1785 45.7273 74.6937 45.2121 74.6937 44.5909C74.6937 41.7576 76.7088 39.4545 79.1785 39.4545H84.83C89.4512 39.4545 93.1937 43.697 93.1937 48.9242V50.2879C93.1937 52.0606 92.4967 53.7273 91.2997 54.9697V50.0151C91.2997 49.6363 91.1179 49.2879 90.7997 49.0757C90.4967 48.8636 90.1028 48.8182 89.7543 48.9545C88.83 49.3182 87.8452 49.4848 86.7997 49.4848C83.6331 49.4848 80.7391 47.7424 79.2543 44.9394C79.0573 44.5757 78.6785 44.3333 78.2694 44.3333C77.83 44.3182 77.4664 44.5454 77.2694 44.9091C77.0118 45.3636 76.7088 45.7576 76.3452 46.1212C75.0118 47.5303 73.1331 48.2727 71.1937 48.0454C70.8755 48.0151 70.5421 48.106 70.3149 48.3333C70.0724 48.5454 69.9361 48.8636 69.9361 49.1818V54.9697C68.7391 53.7424 68.0421 52.0757 68.0421 50.2879ZM72.2088 57.2121V50.3636C74.4209 50.2576 76.4664 49.3182 77.9815 47.7273C78.0573 47.6515 78.1331 47.5757 78.2088 47.5C80.224 50.1666 83.3906 51.7727 86.8149 51.7727C87.5724 51.7727 88.3149 51.697 89.0421 51.5454V57.2273V57.2576V57.2727C89.0421 57.7727 88.9967 58.1969 88.9058 58.6515C88.224 62.7121 84.7391 65.6515 80.6179 65.6515C75.9815 65.6363 72.2088 61.8636 72.2088 57.2121ZM83.724 68.4848C83.724 70.197 82.33 71.5909 80.6179 71.5909C78.9058 71.5909 77.527 70.197 77.527 68.4848V67.4545C78.5118 67.7576 79.5421 67.9091 80.6179 67.9091C81.6937 67.9091 82.7391 67.7424 83.724 67.4394V68.4848Z" fill="black"/>
</svg>
