<svg width="54" height="54" viewBox="0 0 54 54" fill="none" xmlns="http://www.w3.org/2000/svg">
<g clip-path="url(#clip0_274_4)">
<path d="M40.3197 19.0397C40.3197 20.5249 39.7297 21.9493 38.6795 22.9995C37.6293 24.0497 36.2049 24.6397 34.7197 24.6397C33.2345 24.6397 31.8102 24.0497 30.76 22.9995C29.7098 21.9493 29.1198 20.5249 29.1198 19.0397C29.1198 17.5545 29.7098 16.1302 30.76 15.08C31.8102 14.0298 33.2345 13.4398 34.7197 13.4398C36.2049 13.4398 37.6293 14.0298 38.6795 15.08C39.7297 16.1302 40.3197 17.5545 40.3197 19.0397ZM40.3063 34.4194C40.1832 37.9785 39.2947 41.4692 37.7012 44.6539C36.2329 47.4305 34.0283 49.7491 31.3291 51.3553C28.63 52.9616 25.5406 53.7933 22.3998 53.7594H20.1599V41.4395C20.1498 39.3633 19.3206 37.375 17.8525 35.9069C16.3844 34.4388 14.3961 33.6096 12.3199 33.5996H2.41399e-05V31.3596C-0.0338854 28.2189 0.797892 25.1295 2.40411 22.4303C4.01033 19.7312 6.32893 17.5265 9.10555 16.0583C12.2903 14.4648 15.781 13.5763 19.34 13.4532C22.6033 9.2381 26.7941 5.83174 31.5871 3.49857C36.3801 1.1654 41.6463 -0.0318076 46.9769 -0.000119393C47.8639 -0.00572431 48.7433 0.163809 49.5647 0.49876C50.386 0.833711 51.1332 1.32749 51.7633 1.95179C52.3934 2.57609 52.8941 3.31863 53.2367 4.13683C53.5793 4.95503 53.7569 5.83281 53.7596 6.71982C53.7975 12.0604 52.6035 17.3378 50.2702 22.1419C47.9369 26.946 44.5273 31.1474 40.3063 34.4194ZM4.66815 29.1196H9.73499C11.3985 25.4147 13.3526 21.8472 15.5791 18.4506C14.0326 18.8104 12.5341 19.3517 11.1148 20.0634C9.40781 20.9648 7.93561 22.2534 6.81614 23.826C5.69667 25.3987 4.96103 27.2116 4.66815 29.1196ZM35.3089 38.1804C31.9123 40.4068 28.3448 42.361 24.6398 44.0245V49.0913C26.5479 48.7984 28.3608 48.0628 29.9334 46.9433C31.5061 45.8238 32.7947 44.3517 33.6961 42.6446C34.4077 41.2253 34.9491 39.7268 35.3089 38.1804ZM49.2796 6.6571C49.2633 6.07396 49.0201 5.5202 48.6018 5.11359C48.1835 4.70698 47.623 4.47961 47.0396 4.47984C35.4813 4.80912 27.6638 9.23756 20.1195 19.761C18.0143 22.7921 16.163 25.992 14.5845 29.328C17.0304 29.7835 19.2811 30.9689 21.0403 32.7281C22.7996 34.4873 23.9849 36.738 24.4405 39.1839C27.7764 37.6054 30.9763 35.7541 34.0074 33.6489C44.5219 26.0957 48.9503 18.2781 49.2796 6.6571ZM13.7132 40.0485C14.9648 41.313 15.6669 43.0203 15.6669 44.7995C15.6669 46.5787 14.9648 48.286 13.7132 49.5505C11.6815 51.5799 5.59998 52.8321 3.07776 53.2778L-0.0716553 53.8311L0.48162 50.6817C0.929617 48.1595 2.17953 42.0779 4.20895 40.0463C5.48965 38.8247 7.19167 38.1434 8.96152 38.1438C10.7314 38.1442 12.4331 38.8264 13.7132 40.0485ZM11.1999 44.7995C11.2007 44.5052 11.1431 44.2137 11.0305 43.9419C10.9178 43.6701 10.7523 43.4233 10.5436 43.2158C10.1236 42.7959 9.55391 42.56 8.95995 42.56C8.36599 42.56 7.79634 42.7959 7.37628 43.2158C6.52227 44.7575 5.92247 46.4268 5.59998 48.1595C7.33329 47.8356 9.00324 47.2351 10.5459 46.3809C10.7539 46.1736 10.9188 45.9271 11.0311 45.6556C11.1433 45.3842 11.2007 45.0932 11.1999 44.7995Z" fill="black"/>
</g>
<defs>
<clipPath id="clip0_274_4">
<rect width="53.7596" height="53.7596" fill="white"/>
</clipPath>
</defs>
</svg>
