<svg width="54" height="54" viewBox="0 0 54 54" fill="none" xmlns="http://www.w3.org/2000/svg">
<g clip-path="url(#clip0_274_10)">
<path d="M29.12 33.6H24.64V20.16H29.12V33.6ZM20.16 20.16H15.68V21.607C15.68 22.5277 15.1267 23.3453 14.271 23.6858L8.7046 25.9123C6.13756 26.9382 4.47996 29.3888 4.47996 32.153V33.6H8.95996V32.153C8.95996 31.2323 9.51324 30.4147 10.3689 30.0742L15.9353 27.8477C18.5024 26.8218 20.16 24.3712 20.16 21.607V20.16ZM44.8 32.153V33.6H49.28V32.153C49.28 29.391 47.6224 26.9405 45.0553 25.9123L39.4889 23.6858C38.6332 23.343 38.08 22.5254 38.08 21.6048V20.1578H33.6V21.6048C33.6 24.3667 35.2576 26.8173 37.8246 27.8454L43.391 30.072C44.2467 30.4147 44.8 31.2323 44.8 32.153ZM7.75484 44.8C10.23 44.8 12.2348 42.7952 12.2348 40.32C12.2348 37.8448 10.23 35.84 7.75484 35.84C5.27964 35.84 3.27484 37.8448 3.27484 40.32C3.27484 42.7952 5.27964 44.8 7.75484 44.8ZM22.3148 40.32C22.3148 42.7952 24.3196 44.8 26.7948 44.8C29.27 44.8 31.2748 42.7952 31.2748 40.32C31.2748 37.8448 29.27 35.84 26.7948 35.84C24.3196 35.84 22.3148 37.8448 22.3148 40.32ZM45.8348 35.84C43.3596 35.84 41.3548 37.8448 41.3548 40.32C41.3548 42.7952 43.3596 44.8 45.8348 44.8C48.31 44.8 50.3148 42.7952 50.3148 40.32C50.3148 37.8448 48.31 35.84 45.8348 35.84ZM11.1148 47.04H4.3926C1.92188 47.04 -0.0874023 49.0493 -0.0874023 51.52V53.76H4.3926V51.52H11.1126V53.76H15.5926V51.52C15.5926 49.0493 13.5856 47.04 11.1148 47.04ZM49.1948 47.04H42.4748C40.0041 47.04 37.9948 49.0493 37.9948 51.52V53.76H42.4748V51.52H49.1948V53.76H53.6748V51.52C53.6748 49.0493 51.6656 47.04 49.1948 47.04ZM30.1548 47.04H23.4348C20.9641 47.04 18.9548 49.0493 18.9548 51.52V53.76H23.4348V51.52H30.1548V53.76H34.6348V51.52C34.6348 49.0493 32.6256 47.04 30.1548 47.04ZM26.7948 8.96C29.27 8.96 31.2748 6.9552 31.2748 4.48C31.2748 2.0048 29.27 0 26.7948 0C24.3196 0 22.3148 2.0048 22.3148 4.48C22.3148 6.9552 24.3196 8.96 26.7948 8.96ZM23.52 15.68H30.24V17.92H34.72V15.68C34.72 13.2093 32.7107 11.2 30.24 11.2H23.52C21.0492 11.2 19.04 13.2093 19.04 15.68V17.92H23.52V15.68Z" fill="black"/>
</g>
<rect x="0.5" y="0.5" width="52.76" height="52.76" stroke="black"/>
<defs>
<clipPath id="clip0_274_10">
<rect width="53.76" height="53.76" fill="white"/>
</clipPath>
</defs>
</svg>
