<svg width="54" height="54" viewBox="0 0 54 54" fill="none" xmlns="http://www.w3.org/2000/svg">
<g clip-path="url(#clip0_274_17)">
<path d="M29.12 42.5599V53.7599H24.64V42.5599C24.64 41.3257 25.6458 40.3199 26.88 40.3199C28.1142 40.3199 29.12 41.3257 29.12 42.5599ZM0 34.8633V45.9199C0 50.2499 3.51008 53.7599 7.84 53.7599H11.2V21.0134L4.61216 25.8025C1.7136 27.9103 0 31.2771 0 34.8611V34.8633ZM49.1478 25.8047L42.56 21.0156V53.7622H45.92C50.2499 53.7622 53.76 50.2521 53.76 45.9222V34.8655C53.76 31.2815 52.0442 27.9126 49.1478 25.8047ZM29.4493 0.678656L35.2128 4.7129C37.0093 5.96954 38.08 8.02586 38.08 10.2188V53.7599H33.6V42.5599C33.6 38.4159 29.8301 35.1366 25.5405 35.9699C22.3507 36.5903 20.16 39.574 20.16 42.8243V53.7599H15.68V10.2188C15.68 8.02586 16.7507 5.97178 18.5472 4.7129L24.3107 0.678656C25.8541 -0.401023 27.9059 -0.401023 29.4493 0.678656ZM30.24 25.7599C30.24 23.9052 28.7347 22.3999 26.88 22.3999C25.0253 22.3999 23.52 23.9052 23.52 25.7599C23.52 27.6147 25.0253 29.1199 26.88 29.1199C28.7347 29.1199 30.24 27.6147 30.24 25.7599Z" fill="black"/>
</g>
<defs>
<clipPath id="clip0_274_17">
<rect width="53.76" height="53.76" fill="white"/>
</clipPath>
</defs>
</svg>
