<svg width="54" height="54" viewBox="0 0 54 54" fill="none" xmlns="http://www.w3.org/2000/svg">
<g clip-path="url(#clip0_274_31)">
<path d="M51.0657 35.849C38.5486 36.913 32.1086 44.1101 29.1204 49.0179V31.1696C36.6737 30.0429 42.4753 23.5491 42.4753 15.68C42.4753 7.02016 35.4552 0 26.7953 0C18.1355 0 11.1153 7.02016 11.1153 15.68C11.1153 23.6074 17.0043 30.1437 24.6404 31.1942V48.9754C21.6411 44.0698 15.2011 36.9085 2.7198 35.849C1.05324 35.7078 -0.447563 37.1952 0.123637 38.6176C5.72812 52.5706 19.1726 53.8317 24.5105 53.76C25.3259 53.7488 28.267 53.7466 29.0756 53.76C34.5726 53.8541 48.9131 52.687 53.6596 38.6176C54.1502 37.1638 52.7278 35.7078 51.0635 35.849H51.0657ZM20.5883 22.3238C19.652 21.1949 20.4472 19.488 21.9144 19.488H22.0846C22.5931 19.488 23.0568 19.7277 23.4017 20.1018C23.6884 20.4131 24.1006 20.608 24.5553 20.608H29.266C29.8888 20.608 30.4577 20.1891 30.5787 19.5776C30.7198 18.8653 30.2516 18.2 29.5684 18.0611L23.3166 16.809C20.8257 16.3094 19.0875 13.9395 19.4526 11.3456C19.7931 8.9264 21.9345 7.16576 24.3784 7.16576H25.0056V6.26976C25.0056 5.27968 25.8075 4.47776 26.7976 4.47776C27.7876 4.47776 28.5896 5.27968 28.5896 6.26976V7.16576H29.0376C30.6302 7.16576 32.0571 7.89152 33.0024 9.03168C33.9387 10.1606 33.1435 11.8675 31.6763 11.8675H31.506C30.9976 11.8675 30.5339 11.6278 30.1889 11.2538C29.9022 10.9424 29.49 10.7475 29.0353 10.7475H24.3268C23.7041 10.7475 23.1352 11.1642 23.012 11.7734C22.8686 12.4858 23.339 13.1555 24.0177 13.2922L30.2718 14.5443C32.7627 15.0416 34.5032 17.416 34.1358 20.0077C33.7931 22.4269 31.6539 24.1853 29.21 24.1853H28.5828V25.0813C28.5828 26.0714 27.7809 26.8733 26.7908 26.8733C25.8008 26.8733 24.9988 26.0714 24.9988 25.0813V24.1853H24.5508C22.9582 24.1853 21.5313 23.4573 20.586 22.3194L20.5883 22.3238Z" fill="black"/>
</g>
<defs>
<clipPath id="clip0_274_31">
<rect width="53.76" height="53.76" fill="white"/>
</clipPath>
</defs>
</svg>
