<svg width="54" height="54" viewBox="0 0 54 54" fill="none" xmlns="http://www.w3.org/2000/svg">
<g clip-path="url(#clip0_274_25)">
<path d="M12.32 15.68C16.6432 15.68 20.16 12.1632 20.16 7.84C20.16 3.5168 16.6432 0 12.32 0C7.9968 0 4.48 3.5168 4.48 7.84C4.48 12.1632 7.9968 15.68 12.32 15.68ZM12.32 4.48C14.1725 4.48 15.68 5.98752 15.68 7.84C15.68 9.69248 14.1725 11.2 12.32 11.2C10.4675 11.2 8.96 9.69248 8.96 7.84C8.96 5.98752 10.4675 4.48 12.32 4.48ZM22.4 22.4C20.5475 22.4 19.04 23.9075 19.04 25.76C19.04 26.4947 19.273 27.1914 19.7098 27.7738C20.4534 28.7616 20.2541 30.1661 19.264 30.9098C18.8608 31.2122 18.3882 31.36 17.92 31.36C17.239 31.36 16.567 31.0509 16.128 30.4662C15.1021 29.0998 14.5578 27.4736 14.5578 25.76C14.5578 21.4368 18.0746 17.92 22.3978 17.92C24.8506 17.92 27.1958 19.0915 28.6698 21.0538C29.4134 22.0438 29.2118 23.4483 28.224 24.1898C27.2317 24.9334 25.8317 24.7318 25.088 23.744C24.4474 22.8883 23.4662 22.3978 22.4 22.3978V22.4ZM32.48 15.68C36.8032 15.68 40.32 12.1632 40.32 7.84C40.32 3.5168 36.8032 0 32.48 0C28.1568 0 24.64 3.5168 24.64 7.84C24.64 12.1632 28.1568 15.68 32.48 15.68ZM32.48 4.48C34.3325 4.48 35.84 5.98752 35.84 7.84C35.84 9.69248 34.3325 11.2 32.48 11.2C30.6275 11.2 29.12 9.69248 29.12 7.84C29.12 5.98752 30.6275 4.48 32.48 4.48ZM50.839 42.8602L48.6573 41.6013C49.0291 40.488 49.28 39.3187 49.28 38.08C49.28 36.8413 49.0314 35.672 48.6573 34.5587L50.839 33.2998C51.9098 32.6816 52.2771 31.3107 51.6589 30.24C51.0384 29.167 49.672 28.7974 48.599 29.4202L46.4195 30.679C44.8403 28.9005 42.737 27.599 40.32 27.1085V24.6422C40.32 23.4058 39.3165 22.4022 38.08 22.4022C36.8435 22.4022 35.84 23.4058 35.84 24.6422V27.1085C33.423 27.6013 31.3197 28.9027 29.7405 30.679L27.561 29.4202C26.4858 28.7997 25.1194 29.167 24.5011 30.24C23.8829 31.313 24.2502 32.6816 25.321 33.2998L27.5027 34.5587C27.1309 35.672 26.88 36.8413 26.88 38.08C26.88 39.3187 27.1286 40.488 27.5027 41.6013L25.321 42.8602C24.2502 43.4784 23.8829 44.8493 24.5011 45.92C24.9178 46.639 25.6682 47.04 26.4432 47.04C26.8218 47.04 27.207 46.9437 27.561 46.7398L29.7405 45.481C31.3197 47.2595 33.423 48.561 35.84 49.0515V51.5178C35.84 52.7542 36.8435 53.7578 38.08 53.7578C39.3165 53.7578 40.32 52.7542 40.32 51.5178V49.0515C42.737 48.5587 44.8403 47.2573 46.4195 45.481L48.599 46.7398C48.953 46.9437 49.3382 47.04 49.7168 47.04C50.4918 47.04 51.2445 46.639 51.6589 45.92C52.2771 44.847 51.9098 43.4784 50.839 42.8602ZM38.08 44.8C34.375 44.8 31.36 41.785 31.36 38.08C31.36 34.375 34.375 31.36 38.08 31.36C41.785 31.36 44.8 34.375 44.8 38.08C44.8 41.785 41.785 44.8 38.08 44.8ZM11.2 22.4C7.49504 22.4 4.48 25.415 4.48 29.12C4.48 30.3565 3.47648 31.36 2.24 31.36C1.00352 31.36 0 30.3565 0 29.12C0 22.9443 5.02432 17.92 11.2 17.92C12.4365 17.92 13.44 18.9235 13.44 20.16C13.44 21.3965 12.4365 22.4 11.2 22.4ZM22.4 38.08C22.4 39.3165 21.3965 40.32 20.16 40.32C16.455 40.32 13.44 43.335 13.44 47.04C13.44 48.2765 12.4365 49.28 11.2 49.28C9.96352 49.28 8.96 48.2765 8.96 47.04C8.96 40.8643 13.9843 35.84 20.16 35.84C21.3965 35.84 22.4 36.8435 22.4 38.08Z" fill="black"/>
</g>
<defs>
<clipPath id="clip0_274_25">
<rect width="53.76" height="53.76" fill="white"/>
</clipPath>
</defs>
</svg>
