<svg width="54" height="54" viewBox="0 0 54 54" fill="none" xmlns="http://www.w3.org/2000/svg">
<g clip-path="url(#clip0_274_43)">
<path d="M26.88 50.4C26.88 52.257 25.377 53.76 23.52 53.76H12.32C5.52608 53.76 0 48.2339 0 41.44V12.32C0 5.52608 5.52608 0 12.32 0H26.5283C29.8189 0 32.9123 1.28128 35.2397 3.60864L41.1914 9.56032C43.017 11.3859 44.2086 13.6998 44.632 16.2467C44.9366 18.0768 43.68 20.1421 41.44 20.1421C39.2 20.1421 29.12 20.16 29.12 20.16C26.6448 20.16 24.64 18.1552 24.64 15.68V6.72H12.32C9.23328 6.72 6.72 9.23328 6.72 12.32V41.44C6.72 44.5267 9.23328 47.04 12.32 47.04H23.52C25.377 47.04 26.88 48.543 26.88 50.4ZM52.7766 48.0234L43.2566 38.5034L46.0163 35.7437L46.5763 36.3037C47.0131 36.7405 47.5866 36.96 48.16 36.96C48.7334 36.96 49.3069 36.7405 49.7437 36.3037C50.6195 35.4278 50.6195 34.0122 49.7437 33.1363L40.7837 24.1763C39.9078 23.3005 38.4922 23.3005 37.6163 24.1763C36.7405 25.0522 36.7405 26.4678 37.6163 27.3437L38.1763 27.9037L27.9037 38.1763L27.3437 37.6163C26.4678 36.7405 25.0522 36.7405 24.1763 37.6163C23.3005 38.4922 23.3005 39.9078 24.1763 40.7837L33.1363 49.7437C33.5731 50.1805 34.1466 50.4 34.72 50.4C35.2934 50.4 35.8669 50.1805 36.3037 49.7437C37.1795 48.8678 37.1795 47.4522 36.3037 46.5763L35.7437 46.0163L38.5034 43.2566L48.0234 52.7766C49.336 54.0893 51.4618 54.0893 52.7744 52.7766C54.087 51.4662 54.087 49.336 52.7744 48.0256L52.7766 48.0234ZM31.36 25.76C31.36 23.903 29.857 22.4 28 22.4H14.56C12.703 22.4 11.2 23.903 11.2 25.76C11.2 27.617 12.703 29.12 14.56 29.12H28C29.857 29.12 31.36 27.617 31.36 25.76ZM14.56 33.6C12.703 33.6 11.2 35.103 11.2 36.96C11.2 38.817 12.703 40.32 14.56 40.32H16.8C18.657 40.32 20.16 38.817 20.16 36.96C20.16 35.103 18.657 33.6 16.8 33.6H14.56ZM14.56 17.92H16.8C18.657 17.92 20.16 16.417 20.16 14.56C20.16 12.703 18.657 11.2 16.8 11.2H14.56C12.703 11.2 11.2 12.703 11.2 14.56C11.2 16.417 12.703 17.92 14.56 17.92Z" fill="black"/>
</g>
<defs>
<clipPath id="clip0_274_43">
<rect width="53.76" height="53.76" fill="white"/>
</clipPath>
</defs>
</svg>
